<svg width="124" height="124" viewBox="0 0 124 124" fill="none" xmlns="http://www.w3.org/2000/svg">
<path d="M62 117.984C60.6963 117.984 59.4924 117.286 58.846 116.154L47.4317 96.1785C39.0246 93.2815 31.5076 87.8156 26.1439 80.6698C20.2895 72.8714 17.1953 63.5816 17.1953 53.8047C17.1953 29.0991 37.2945 9 62 9C86.7055 9 106.805 29.0991 106.805 53.8047C106.805 63.5816 103.711 72.8714 97.8563 80.6701C92.4926 87.8158 84.9754 93.2817 76.5685 96.1788L65.1542 116.154C64.5076 117.286 63.3037 117.984 62 117.984Z" fill="#FFDD54"/>
<path d="M65.154 116.154L76.5683 96.1785C84.9754 93.2815 92.4924 87.8156 97.8561 80.6698C103.71 72.8714 106.805 63.5816 106.805 53.8047C106.805 29.0991 86.7055 9 62 9V117.984C63.3037 117.984 64.5076 117.286 65.154 116.154V116.154Z" fill="#FFA07A"/>
<path d="M62 76.8125C57.297 76.8125 53.9238 76.1746 51.3844 74.8045C48.8969 73.4626 45.9316 70.6772 45.9316 65.0291C45.9318 56.1692 53.14 48.9609 62 48.9609C70.8599 48.9609 78.0682 56.1692 78.0682 65.0291C78.0682 70.6772 75.1028 73.4626 72.6156 74.8045C70.0762 76.1746 66.703 76.8125 62 76.8125Z" fill="#C18678"/>
<path d="M45.0469 55.5C40.0392 55.5 35.9648 51.4257 35.9648 46.418C35.9648 41.4103 40.0392 37.3359 45.0469 37.3359C50.0546 37.3359 54.1289 41.4103 54.1289 46.418C54.1289 51.4257 50.0546 55.5 45.0469 55.5Z" fill="#A55C4F"/>
<path d="M62 48.9609C56.9923 48.9609 52.918 44.8866 52.918 39.8789C52.918 34.8712 56.9923 30.7969 62 30.7969C67.0077 30.7969 71.082 34.8712 71.082 39.8789C71.082 44.8866 67.0077 48.9609 62 48.9609Z" fill="#A55C4F"/>
<path d="M69.8711 46.418C69.8711 41.4103 73.9454 37.3359 78.9531 37.3359C83.9608 37.3359 88.0352 41.4103 88.0352 46.418C88.0352 51.4257 83.9608 55.5 78.9531 55.5C73.9454 55.5 69.8711 51.4257 69.8711 46.418Z" fill="#784033"/>
<path d="M72.6156 74.8045C75.1031 73.4626 78.0682 70.6772 78.0682 65.0291C78.0682 56.1692 70.8599 48.9609 62 48.9609V76.8125C66.703 76.8125 70.0762 76.1746 72.6156 74.8045Z" fill="#A55C4F"/>
<path d="M71.082 39.8789C71.082 34.8712 67.0077 30.7969 62 30.7969V48.9609C67.0077 48.9609 71.082 44.8866 71.082 39.8789Z" fill="#784033"/>
</svg>
