<svg width="349" height="124" viewBox="0 0 349 124" fill="none" xmlns="http://www.w3.org/2000/svg">
<path d="M172.78 44.14L188.98 77.62C189.66 78.98 190 80 190 80.68C190 82.12 188.84 83.42 186.52 84.58C185.16 85.26 184.08 85.6 183.28 85.6C182.52 85.6 181.88 85.42 181.36 85.06C180.88 84.7 180.52 84.32 180.28 83.92C180.08 83.52 179.78 82.92 179.38 82.12L176.26 75.64H159.64L156.52 82.12C156.12 82.92 155.8 83.5 155.56 83.86C155.36 84.22 155 84.6 154.48 85C154 85.36 153.36 85.54 152.56 85.54C151.8 85.54 150.74 85.2 149.38 84.52C147.06 83.4 145.9 82.12 145.9 80.68C145.9 80 146.24 78.98 146.92 77.62L163.12 44.08C163.56 43.16 164.22 42.42 165.1 41.86C166.02 41.3 166.98 41.02 167.98 41.02C170.14 41.02 171.74 42.06 172.78 44.14ZM167.92 58.54L163.96 66.76H171.94L167.92 58.54ZM203.717 84.88C199.677 84.88 196.317 83.36 193.637 80.32C190.997 77.24 189.677 73.5 189.677 69.1V58.6C189.677 57.64 189.697 56.94 189.737 56.5C189.817 56.06 189.997 55.54 190.277 54.94C190.837 53.86 192.397 53.32 194.957 53.32C197.757 53.32 199.397 54.08 199.877 55.6C200.117 56.24 200.237 57.26 200.237 58.66V69.16C200.237 70.8 200.697 72.08 201.617 73C202.577 73.92 203.837 74.38 205.397 74.38C206.997 74.38 208.277 73.9 209.237 72.94C210.237 71.98 210.737 70.72 210.737 69.16V58.54C210.737 57.62 210.757 56.94 210.797 56.5C210.877 56.02 211.077 55.48 211.397 54.88C211.917 53.84 213.457 53.32 216.017 53.32C218.537 53.32 220.077 53.86 220.637 54.94C220.917 55.54 221.077 56.08 221.117 56.56C221.197 57 221.237 57.68 221.237 58.6V79.84C221.237 80.72 221.197 81.4 221.117 81.88C221.077 82.32 220.897 82.82 220.577 83.38C219.977 84.42 218.437 84.94 215.957 84.94C213.517 84.94 212.017 84.46 211.457 83.5C211.057 82.82 210.857 82 210.857 81.04C210.697 81.32 210.337 81.72 209.777 82.24C209.217 82.76 208.677 83.2 208.157 83.56C206.797 84.44 205.317 84.88 203.717 84.88ZM224.863 93.58V58.54C224.863 57.62 224.883 56.94 224.923 56.5C225.003 56.06 225.183 55.56 225.463 55C226.023 53.92 227.363 53.38 229.483 53.38C231.603 53.38 233.023 53.66 233.743 54.22C234.503 54.74 234.943 55.52 235.063 56.56C236.583 54.48 238.963 53.44 242.203 53.44C245.483 53.44 248.583 54.98 251.503 58.06C254.423 61.14 255.883 64.72 255.883 68.8C255.883 72.88 254.423 76.46 251.503 79.54C248.623 82.62 245.543 84.16 242.263 84.16C238.983 84.16 236.603 83.24 235.123 81.4V93.52C235.123 94.44 235.083 95.12 235.003 95.56C234.963 96 234.783 96.5 234.463 97.06C234.183 97.66 233.683 98.08 232.963 98.32C232.243 98.56 231.263 98.68 230.023 98.68C228.783 98.68 227.783 98.56 227.023 98.32C226.303 98.08 225.783 97.68 225.463 97.12C225.183 96.56 225.003 96.06 224.923 95.62C224.883 95.18 224.863 94.5 224.863 93.58ZM236.743 65.32C235.823 66.4 235.363 67.58 235.363 68.86C235.363 70.14 235.823 71.32 236.743 72.4C237.703 73.44 238.903 73.96 240.343 73.96C241.823 73.96 243.063 73.44 244.063 72.4C245.103 71.36 245.623 70.18 245.623 68.86C245.623 67.54 245.143 66.36 244.183 65.32C243.223 64.24 241.963 63.7 240.403 63.7C238.883 63.7 237.663 64.24 236.743 65.32ZM289.065 65.44C289.065 67.88 288.445 69.7 287.205 70.9C286.005 72.06 284.665 72.64 283.185 72.64H268.965C268.965 73.76 269.625 74.7 270.945 75.46C272.265 76.22 273.585 76.6 274.905 76.6C277.225 76.6 279.045 76.36 280.365 75.88L281.025 75.64C281.985 75.2 282.785 74.98 283.425 74.98C284.705 74.98 285.805 75.88 286.725 77.68C287.245 78.76 287.505 79.68 287.505 80.44C287.505 84 283.245 85.78 274.725 85.78C271.765 85.78 269.125 85.28 266.805 84.28C264.525 83.24 262.745 81.88 261.465 80.2C258.945 76.96 257.685 73.34 257.685 69.34C257.685 64.3 259.305 60.28 262.545 57.28C265.825 54.24 269.905 52.72 274.785 52.72C280.345 52.72 284.425 54.68 287.025 58.6C288.385 60.68 289.065 62.96 289.065 65.44ZM276.405 67.18C277.925 67.18 278.685 66.54 278.685 65.26C278.685 64.34 278.325 63.6 277.605 63.04C276.925 62.48 275.925 62.2 274.605 62.2C273.325 62.2 272.045 62.74 270.765 63.82C269.485 64.86 268.845 65.98 268.845 67.18H276.405ZM309.554 64L305.654 63.76V72.04C305.654 73.12 305.814 73.9 306.134 74.38C306.494 74.86 307.134 75.1 308.054 75.1C309.014 75.1 309.734 75.14 310.214 75.22C310.734 75.26 311.274 75.44 311.834 75.76C312.754 76.28 313.214 77.62 313.214 79.78C313.214 82.3 312.654 83.84 311.534 84.4C310.934 84.68 310.394 84.86 309.914 84.94C309.474 84.98 308.814 85 307.934 85C303.774 85 300.614 84.06 298.454 82.18C296.294 80.3 295.214 77.12 295.214 72.64V63.76C294.454 63.88 293.634 63.94 292.754 63.94C291.874 63.94 291.134 63.6 290.534 62.92C289.974 62.24 289.694 61.08 289.694 59.44C289.694 57.8 289.794 56.62 289.994 55.9C290.194 55.14 290.474 54.6 290.834 54.28C291.474 53.76 292.274 53.5 293.234 53.5L295.214 53.74V47.56C295.214 46.64 295.234 45.96 295.274 45.52C295.354 45.08 295.554 44.6 295.874 44.08C296.394 43.08 297.934 42.58 300.494 42.58C303.214 42.58 304.834 43.32 305.354 44.8C305.554 45.44 305.654 46.46 305.654 47.86V53.74C307.414 53.58 308.734 53.5 309.614 53.5C310.534 53.5 311.214 53.54 311.654 53.62C312.134 53.66 312.674 53.84 313.274 54.16C314.314 54.68 314.834 56.22 314.834 58.78C314.834 61.3 314.294 62.84 313.214 63.4C312.614 63.68 312.074 63.86 311.594 63.94C311.154 63.98 310.474 64 309.554 64Z" fill="white"/>
<path d="M100.75 124H23.25C22.0647 124 20.9543 123.422 20.2745 122.451C19.5947 121.481 19.4309 120.239 19.8359 119.126L29.5234 92.4851C30.0455 91.0494 31.4098 90.0938 32.9375 90.0938H91.0625C92.5902 90.0938 93.9545 91.0494 94.4766 92.4851L104.164 119.126C104.569 120.24 104.405 121.481 103.726 122.451C103.046 123.422 101.935 124 100.75 124Z" fill="#7DD5F4"/>
<path d="M103.726 122.451C104.405 121.481 104.569 120.239 104.164 119.126L94.4766 92.4851C93.9545 91.0494 92.5902 90.0938 91.0625 90.0938H62V124H100.75C101.935 124 103.046 123.422 103.726 122.451Z" fill="#6BA7FF"/>
<path d="M62 108.984C60.6963 108.984 59.4924 108.286 58.846 107.154L47.4317 87.1785C39.0246 84.2815 31.5076 78.8156 26.1439 71.6698C20.2895 63.8714 17.1953 54.5816 17.1953 44.8047C17.1953 20.0991 37.2945 0 62 0C86.7056 0 106.805 20.0991 106.805 44.8047C106.805 54.5816 103.711 63.8714 97.8563 71.6701C92.4926 78.8158 84.9754 84.2817 76.5685 87.1788L65.1542 107.154C64.5076 108.286 63.3037 108.984 62 108.984Z" fill="#FFDD54"/>
<path d="M65.154 107.154L76.5683 87.1785C84.9754 84.2815 92.4924 78.8156 97.8561 71.6698C103.71 63.8714 106.805 54.5816 106.805 44.8047C106.805 20.0991 86.7055 0 62 0V108.984C63.3037 108.984 64.5076 108.286 65.154 107.154Z" fill="#FFA07A"/>
<path d="M62 67.8125C57.297 67.8125 53.9238 67.1746 51.3844 65.8045C48.8969 64.4626 45.9316 61.6772 45.9316 56.0291C45.9318 47.1692 53.14 39.9609 62 39.9609C70.8599 39.9609 78.0682 47.1692 78.0682 56.0291C78.0682 61.6772 75.1028 64.4626 72.6156 65.8045C70.0762 67.1746 66.703 67.8125 62 67.8125Z" fill="#C18678"/>
<path d="M45.0469 46.5C40.0392 46.5 35.9648 42.4257 35.9648 37.418C35.9648 32.4103 40.0392 28.3359 45.0469 28.3359C50.0546 28.3359 54.1289 32.4103 54.1289 37.418C54.1289 42.4257 50.0546 46.5 45.0469 46.5Z" fill="#A55C4F"/>
<path d="M62 39.9609C56.9923 39.9609 52.918 35.8866 52.918 30.8789C52.918 25.8712 56.9923 21.7969 62 21.7969C67.0077 21.7969 71.082 25.8712 71.082 30.8789C71.082 35.8866 67.0077 39.9609 62 39.9609Z" fill="#A55C4F"/>
<path d="M69.8711 37.418C69.8711 32.4103 73.9454 28.3359 78.9531 28.3359C83.9608 28.3359 88.0352 32.4103 88.0352 37.418C88.0352 42.4257 83.9608 46.5 78.9531 46.5C73.9454 46.5 69.8711 42.4257 69.8711 37.418Z" fill="#784033"/>
<path d="M72.6156 65.8045C75.1031 64.4626 78.0682 61.6772 78.0682 56.0291C78.0682 47.1692 70.8599 39.9609 62 39.9609V67.8125C66.703 67.8125 70.0762 67.1746 72.6156 65.8045Z" fill="#A55C4F"/>
<path d="M71.082 30.8789C71.082 25.8712 67.0077 21.7969 62 21.7969V39.9609C67.0077 39.9609 71.082 35.8866 71.082 30.8789Z" fill="#784033"/>
</svg>
